<svg xmlns="http://www.w3.org/2000/svg" width="27.125" height="22.827" viewBox="0 0 27.125 22.827"><defs><style>.a{fill:#fff;}</style></defs><g transform="translate(0 -6.348)"><path class="a" d="M16.369,10.266a4.929,4.929,0,0,1,2.294,3.662,3.977,3.977,0,1,0-2.294-3.662Zm-2.606,8.145a3.978,3.978,0,1,0-3.979-3.978A3.978,3.978,0,0,0,13.763,18.411Zm1.688.271H12.075a5.1,5.1,0,0,0-5.094,5.094V27.9l.01.065.284.089A23.186,23.186,0,0,0,14.2,29.175a14.218,14.218,0,0,0,6.047-1.135l.266-.134h.028V23.777A5.1,5.1,0,0,0,15.45,18.683Zm6.582-4.107h-3.35a4.9,4.9,0,0,1-1.513,3.415,6.053,6.053,0,0,1,4.323,5.792v1.272a13.707,13.707,0,0,0,5.339-1.122L27.1,23.8h.028v-4.13A5.1,5.1,0,0,0,22.032,14.576ZM6.782,14.3A3.952,3.952,0,0,0,8.9,13.691a4.923,4.923,0,0,1,1.851-3.14c0-.074.011-.148.011-.223A3.978,3.978,0,1,0,6.782,14.3Zm3.573,3.686a4.906,4.906,0,0,1-1.512-3.4c-.124-.009-.247-.019-.374-.019H5.094A5.1,5.1,0,0,0,0,19.669V23.8l.01.064.284.09a23.882,23.882,0,0,0,5.736,1.078V23.783A6.054,6.054,0,0,1,10.355,17.991Z"/></g></svg>