<svg xmlns="http://www.w3.org/2000/svg" width="24.008" height="24.654" viewBox="0 0 24.008 24.654"><defs><style>.a{fill:#fff;}</style></defs><g transform="translate(-6.71)"><g transform="translate(6.71)"><path class="a" d="M30.3,15.029l-2.266-1.772a8.922,8.922,0,0,0,.053-.931,8.652,8.652,0,0,0-.053-.931L30.3,9.622a1.111,1.111,0,0,0,.268-1.416L28.216,4.13a1.092,1.092,0,0,0-1.363-.49L24.179,4.713a9.168,9.168,0,0,0-1.606-.932L22.167.945A1.091,1.091,0,0,0,21.078,0H16.353a1.088,1.088,0,0,0-1.087.937l-.408,2.847a9.451,9.451,0,0,0-1.6.932L10.574,3.639a1.114,1.114,0,0,0-1.353.482L6.862,8.2a1.1,1.1,0,0,0,.267,1.423L9.395,11.4a8.128,8.128,0,0,0,0,1.86L7.127,15.031a1.111,1.111,0,0,0-.267,1.416l2.357,4.077a1.09,1.09,0,0,0,1.363.49l2.674-1.073a9.249,9.249,0,0,0,1.6.932l.407,2.835a1.09,1.09,0,0,0,1.089.947h4.725a1.089,1.089,0,0,0,1.088-.937l.408-2.845a9.5,9.5,0,0,0,1.6-.933l2.681,1.077a1.1,1.1,0,0,0,.4.076,1.085,1.085,0,0,0,.95-.557l2.367-4.1A1.109,1.109,0,0,0,30.3,15.029ZM18.715,16.436a4.109,4.109,0,1,1,4.109-4.109A4.113,4.113,0,0,1,18.715,16.436Z" transform="translate(-6.71)"/></g></g></svg>